<svg xmlns="http://www.w3.org/2000/svg" width="20" height="20" fill="none">
    <path d="m13.457 15.61-1.179 1.991c-1.025 1.731-3.53 1.732-4.556 0l-1.18-1.99a6.145 6.145 0 0 0-2.152-2.153l-1.991-1.18c-1.731-1.026-1.731-3.53 0-4.556l1.99-1.18A6.145 6.145 0 0 0 6.543 4.39l1.18-1.99c1.024-1.732 3.53-1.732 4.555 0l1.18 1.99a6.145 6.145 0 0 0 2.153 2.154l1.99 1.179c1.731 1.025 1.731 3.53 0 4.556l-1.99 1.18a6.145 6.145 0 0 0-2.154 2.153Z" fill="#A7F3D0" stroke="#A7F3D0" stroke-opacity=".3" stroke-linecap="round" stroke-linejoin="round"/>
    <path d="M6.107 12.044V8.093h1.819c.69 0 1.184.498 1.184 1.185 0 .56-.324.985-.818 1.13l.915 1.636h-.61l-.854-1.587H6.62v1.587h-.513Zm.513-2.06h1.257a.674.674 0 0 0 .696-.7c0-.407-.281-.705-.672-.705H6.62v1.404ZM9.986 12.093a.384.384 0 0 1-.391-.401c0-.231.165-.402.39-.402.226 0 .391.17.391.402a.384.384 0 0 1-.39.4ZM12.452 12.117c-.897 0-1.562-.535-1.61-1.313l.56-.146c.025.56.458.96 1.063.96.488 0 .866-.267.866-.644 0-.942-2.319-.656-2.319-1.92 0-.633.586-1.034 1.33-1.034.757 0 1.331.425 1.404 1.057l-.561.159c-.05-.414-.39-.73-.88-.73-.39 0-.731.207-.731.523 0 .827 2.319.583 2.319 1.945 0 .675-.58 1.143-1.44 1.143Z" fill="#000"/>
</svg>
