<svg xmlns="http://www.w3.org/2000/svg" width="42" height="42" viewBox="0 0 42 42" fill="none">
  <path d="m27.4139 31.222-2.358 3.982c-2.05 3.462-7.06 3.464-9.11 0l-2.36-3.98a12.29 12.29 0 0 0-4.304-4.306l-3.981-2.36c-3.462-2.05-3.462-7.06 0-9.11l3.98-2.36a12.29 12.29 0 0 0 4.306-4.304l2.36-3.98c2.048-3.464 7.06-3.464 9.11 0l2.36 3.98a12.29 12.29 0 0 0 4.306 4.305l3.98 2.36c3.462 2.05 3.462 7.06 0 9.11l-3.98 2.36a12.29 12.29 0 0 0-4.306 4.306Z" fill="#A7F3D0" stroke="#A7F3D0" stroke-opacity=".3" stroke-linecap="round" stroke-linejoin="round"/>
  <path d="M12.214 24.088v-7.902h3.638c1.38 0 2.368.996 2.368 2.37 0 1.12-.648 1.97-1.636 2.26l1.83 3.272h-1.22l-1.708-3.174h-2.272v3.174h-1.026Zm1.026-4.12h2.514a1.348 1.348 0 0 0 1.392-1.4c0-.814-.562-1.41-1.344-1.41h-2.562v2.81ZM19.972 24.186a.768.768 0 0 1-.782-.802.768.768 0 0 1 .78-.804c.452 0 .782.34.782.804a.768.768 0 0 1-.78.802ZM24.904 24.234c-1.794 0-3.124-1.07-3.22-2.626l1.12-.292c.05 1.12.916 1.92 2.126 1.92.976 0 1.732-.534 1.732-1.288 0-1.884-4.638-1.312-4.638-3.84 0-1.266 1.172-2.068 2.66-2.068 1.514 0 2.662.85 2.808 2.114l-1.122.318c-.1-.828-.78-1.46-1.76-1.46-.78 0-1.462.414-1.462 1.046 0 1.654 4.638 1.166 4.638 3.89 0 1.35-1.16 2.286-2.88 2.286Z" fill="#000"/>
</svg>