<svg width="92" height="92" viewBox="0 0 92 92" fill="none" xmlns="http://www.w3.org/2000/svg">
<g filter="url(#filter0_f_1_2)">
<path d="M49.1055 51.0398L48.0462 52.8277C47.1251 54.3824 44.8748 54.3827 43.9539 52.8278L42.8947 51.0399C42.4225 50.243 41.7575 49.5781 40.9607 49.1058L39.1722 48.0461C37.6176 47.125 37.6176 44.8749 39.1723 43.9538L40.9605 42.8943C41.7573 42.422 42.4223 41.757 42.8946 40.9602L43.9541 39.172C44.8748 37.6173 47.1248 37.6173 48.0462 39.1722L49.1056 40.9603C49.5779 41.7571 50.2431 42.4224 51.0399 42.8946L52.8276 43.9536C54.3822 44.8747 54.3824 47.125 52.8278 48.0462L51.0396 49.1057C50.2428 49.578 49.5778 50.2429 49.1055 51.0398Z" fill="#A7F3D0"/>
<path d="M49.1055 51.0398L48.0462 52.8277C47.1251 54.3824 44.8748 54.3827 43.9539 52.8278L42.8947 51.0399C42.4225 50.243 41.7575 49.5781 40.9607 49.1058L39.1722 48.0461C37.6176 47.125 37.6176 44.8749 39.1723 43.9538L40.9605 42.8943C41.7573 42.422 42.4223 41.757 42.8946 40.9602L43.9541 39.172C44.8748 37.6173 47.1248 37.6173 48.0462 39.1722L49.1056 40.9603C49.5779 41.7571 50.2431 42.4224 51.0399 42.8946L52.8276 43.9536C54.3822 44.8747 54.3824 47.125 52.8278 48.0462L51.0396 49.1057C50.2428 49.578 49.5778 50.2429 49.1055 51.0398Z" stroke="#A7F3D0" stroke-opacity="0.3" stroke-linecap="round" stroke-linejoin="round"/>
</g>
<path d="M49.4574 51.6109L48.2781 53.6014C47.2526 55.3322 44.7473 55.3326 43.7221 53.6015L42.5429 51.611C42.0171 50.7239 41.2768 49.9836 40.3897 49.4578L38.3986 48.278C36.6678 47.2525 36.6679 44.7475 38.3987 43.722L40.3895 42.5424C41.2766 42.0166 42.017 41.2763 42.5428 40.3891L43.7223 38.3983C44.7473 36.6675 47.2523 36.6675 48.2781 38.3985L49.4576 40.3893C49.9833 41.2764 50.724 42.017 51.6111 42.5428L53.6013 43.7217C55.3321 44.7472 55.3323 47.2525 53.6015 48.278L51.6107 49.4576C50.7235 49.9834 49.9832 50.7238 49.4574 51.6109Z" fill="#A7F3D0" stroke="#A7F3D0" stroke-opacity="0.3" stroke-linecap="round" stroke-linejoin="round"/>
<path d="M42.1071 48.0443V44.0925H43.9258C44.6154 44.0925 45.1097 44.5911 45.1097 45.2781C45.1097 45.8374 44.7863 46.263 44.2919 46.4089L45.2074 48.0443H44.5971L43.7427 46.4575H42.6197V48.0443H42.1071ZM42.6197 45.9833H43.8769C44.2797 45.9833 44.5727 45.6915 44.5727 45.2841C44.5727 44.8768 44.2919 44.5789 43.9014 44.5789H42.6197V45.9833Z" fill="black"/>
<path d="M45.9856 48.0929C45.7598 48.0929 45.595 47.9227 45.595 47.6917C45.595 47.4606 45.7598 47.2904 45.9856 47.2904C46.2114 47.2904 46.3762 47.4606 46.3762 47.6917C46.3762 47.9227 46.2114 48.0929 45.9856 48.0929Z" fill="black"/>
<path d="M48.4524 48.1172C47.5552 48.1172 46.89 47.5822 46.8412 46.804L47.4027 46.6581C47.4271 47.2175 47.8604 47.6187 48.4646 47.6187C48.9528 47.6187 49.3312 47.3512 49.3312 46.9743C49.3312 46.0319 47.0121 46.3177 47.0121 45.0531C47.0121 44.4208 47.598 44.0196 48.3425 44.0196C49.0993 44.0196 49.673 44.4451 49.7462 45.0774L49.1847 45.2355C49.1359 44.8221 48.7941 44.5059 48.3059 44.5059C47.9153 44.5059 47.5736 44.7127 47.5736 45.0288C47.5736 45.8556 49.8927 45.6124 49.8927 46.9743C49.8927 47.6491 49.3129 48.1172 48.4524 48.1172Z" fill="black"/>
<defs>
<filter id="filter0_f_1_2" x="0.506287" y="0.505982" width="90.9874" height="90.9878" filterUnits="userSpaceOnUse" color-interpolation-filters="sRGB">
<feFlood flood-opacity="0" result="BackgroundImageFix"/>
<feBlend mode="normal" in="SourceGraphic" in2="BackgroundImageFix" result="shape"/>
<feGaussianBlur stdDeviation="18.5" result="effect1_foregroundBlur_1_2"/>
</filter>
</defs>
</svg>
